<?xml version="1.0" standalone="no"?>
<!DOCTYPE svg PUBLIC "-//W3C//DTD SVG 20010904//EN"
 "http://www.w3.org/TR/2001/REC-SVG-20010904/DTD/svg10.dtd">
<svg version="1.0" xmlns="http://www.w3.org/2000/svg"
 width="1984.000000pt" height="597.000000pt" viewBox="0 0 1984.000000 597.000000"
 preserveAspectRatio="xMidYMid meet">

<g transform="translate(0.000000,597.000000) scale(0.100000,-0.100000)"
fill="#000000" stroke="none">
<path d="M2126 5887 c-30 -17 -52 -46 -104 -137 -87 -151 -654 -1133 -686
-1187 l-26 -43 -387 0 c-369 0 -390 -1 -421 -20 -40 -25 -53 -45 -296 -473
-184 -323 -198 -351 -198 -397 0 -53 -15 -27 579 -1052 l184 -318 -17 -32 c-9
-18 -87 -154 -172 -303 -139 -242 -156 -276 -160 -325 l-4 -55 193 -335 c241
-421 231 -406 279 -430 38 -20 56 -20 812 -20 l773 0 190 -326 c147 -254 198
-332 225 -350 l35 -24 463 0 c496 0 502 1 549 51 20 22 183 302 611 1045 l156
271 358 6 c400 7 406 8 451 75 14 20 59 96 100 167 41 72 127 222 192 335 131
226 143 264 107 330 -15 29 -620 1078 -727 1262 l-33 56 169 294 c93 161 180
306 192 321 17 22 22 42 22 85 0 56 -3 63 -219 432 -212 363 -248 419 -291
443 -15 9 -231 13 -793 17 l-774 5 -170 290 c-93 160 -179 301 -191 314 -46
50 -56 51 -509 51 -419 0 -423 -1 -462 -23z m279 -479 c105 -182 191 -336 193
-342 1 -6 -88 -166 -197 -356 l-200 -345 1584 -5 1584 -5 -200 -344 c-109
-189 -199 -347 -199 -351 0 -5 178 -315 395 -691 217 -376 395 -687 395 -691
0 -5 -177 -8 -393 -8 l-392 0 -199 345 c-110 190 -203 345 -207 345 -4 0 -96
-154 -204 -342 -195 -338 -1198 -2081 -1318 -2290 -34 -59 -65 -107 -69 -105
-5 1 -97 157 -207 347 l-198 345 -803 3 c-441 1 -800 6 -798 10 2 5 91 160
198 345 l195 337 402 2 402 3 -556 960 c-305 528 -660 1142 -789 1363 -129
222 -234 408 -234 413 0 5 173 9 408 9 l408 0 379 658 c443 770 415 722 423
722 4 0 93 -150 197 -332z"/>
<path d="M2337 3513 c-15 -2 -25 -9 -22 -14 4 -5 0 -9 -7 -9 -31 0 -68 -25
-62 -42 3 -11 0 -18 -8 -18 -7 0 -19 -9 -26 -20 -7 -12 -18 -18 -24 -14 -7 4
-8 3 -4 -4 4 -7 3 -12 -2 -12 -5 0 -12 -10 -15 -21 -4 -14 -11 -20 -21 -16
-13 5 -14 3 -3 -13 6 -11 15 -20 20 -20 4 0 6 -4 3 -9 -6 -8 168 -315 604
-1068 l204 -352 39 67 c115 197 607 1051 691 1199 85 152 96 175 83 187 -8 8
-18 12 -21 8 -4 -3 -4 1 0 11 3 9 11 14 17 10 7 -4 -4 9 -23 28 -20 19 -43 38
-53 42 -9 3 -17 11 -17 17 0 6 6 8 13 5 6 -4 3 0 -7 9 -10 8 -23 13 -27 10 -5
-3 -9 -1 -9 4 0 5 -15 17 -34 26 -30 14 -102 16 -648 15 -337 -1 -625 -4 -641
-6z"/>
<path d="M8964 4535 c-371 -58 -658 -212 -897 -483 -167 -190 -272 -401 -328
-664 -27 -121 -37 -416 -19 -555 45 -368 201 -673 456 -895 263 -228 580 -338
976 -338 224 0 402 32 590 106 l93 37 96 -102 97 -101 238 2 238 3 -144 155
c-78 85 -161 174 -183 197 l-40 42 88 93 c253 268 383 540 425 888 20 166 7
411 -30 570 -103 438 -407 797 -813 960 -176 70 -357 100 -594 99 -93 -1 -204
-7 -249 -14z m523 -405 c273 -56 504 -233 633 -487 89 -174 127 -395 109 -635
-21 -290 -119 -526 -298 -719 l-60 -64 -112 120 c-63 66 -149 157 -194 203
l-80 83 -232 -3 -232 -3 259 -280 c143 -154 258 -284 256 -290 -4 -13 -117
-41 -222 -54 -301 -37 -580 33 -789 199 -266 212 -409 542 -391 905 17 353
155 625 424 834 240 185 596 258 929 191z"/>
<path d="M14424 3429 c-175 -29 -324 -108 -460 -243 -148 -148 -234 -314 -270
-520 -24 -133 -15 -360 19 -477 81 -284 286 -484 572 -560 114 -30 346 -37
474 -15 209 37 366 134 511 317 l41 52 -151 83 -151 84 -59 -59 c-67 -68 -173
-125 -265 -142 -76 -14 -224 -6 -291 15 -160 50 -274 188 -299 360 l-7 46 670
0 670 0 7 66 c10 87 -9 299 -35 399 -84 317 -306 533 -608 591 -80 15 -285 17
-368 3z m291 -345 c103 -26 186 -89 239 -179 23 -39 66 -163 66 -191 0 -12
-72 -14 -451 -14 l-451 0 7 28 c33 134 136 272 245 327 88 45 236 58 345 29z"/>
<path d="M12023 3038 c-121 -216 -258 -461 -304 -545 -46 -84 -86 -152 -89
-153 -3 0 -72 235 -155 521 -82 287 -154 523 -160 525 -6 3 -103 3 -216 2
l-206 -3 144 -440 c366 -1115 485 -1476 488 -1473 2 2 139 248 305 548 166
300 305 548 309 552 3 4 82 -237 175 -535 93 -298 172 -547 175 -554 5 -9 807
1353 1089 1849 l33 58 -233 0 -233 0 -278 -519 c-153 -286 -281 -522 -285
-525 -3 -4 -79 237 -168 535 -89 297 -164 543 -167 545 -3 3 -103 -172 -224
-388z"/>
<path d="M16755 3416 c-33 -8 -90 -26 -125 -41 -66 -28 -192 -104 -204 -124
-19 -30 -26 -6 -20 64 l7 75 -201 0 -201 0 -6 -32 c-7 -41 -192 -1548 -201
-1640 l-7 -68 201 0 c201 0 202 0 207 23 2 12 25 191 50 397 52 431 70 561 91
644 50 197 194 339 371 366 154 24 273 -30 303 -138 22 -82 16 -152 -100
-1087 -11 -88 -20 -170 -20 -182 l0 -23 200 0 199 0 6 33 c23 136 127 1030
131 1137 10 216 -27 340 -131 449 -60 63 -137 109 -225 136 -76 22 -249 28
-325 11z"/>
</g>
</svg>
